<svg xmlns="http://www.w3.org/2000/svg" width="105" height="32" viewBox="0 0 105 32" fill="none"><path d="M16.4026 24.9034V22.9674L22.4526 15.0034V15.5754H16.4026V13.3094H25.2686V15.2454L19.3946 23.0554L19.3066 22.6374H25.4226V24.9034H16.4026Z" fill="#004411"></path><path d="M32.4561 25.1234C31.2388 25.1234 30.1608 24.8668 29.2221 24.3534C28.2981 23.8401 27.5721 23.1434 27.0441 22.2634C26.5308 21.3688 26.2741 20.3494 26.2741 19.2054C26.2741 18.2961 26.4208 17.4674 26.7141 16.7194C27.0075 15.9714 27.4108 15.3261 27.9241 14.7834C28.4521 14.2261 29.0755 13.8008 29.7941 13.5074C30.5275 13.1994 31.3268 13.0454 32.1921 13.0454C32.9548 13.0454 33.6661 13.1921 34.3261 13.4854C34.9861 13.7788 35.5581 14.1821 36.0421 14.6954C36.5261 15.1941 36.8928 15.7954 37.1421 16.4994C37.4061 17.1888 37.5308 17.9441 37.5161 18.7654L37.4941 19.7114H28.1001L27.5941 17.8634H35.2281L34.8761 18.2374V17.7534C34.8321 17.2988 34.6855 16.9028 34.4361 16.5654C34.1868 16.2134 33.8641 15.9421 33.4681 15.7514C33.0868 15.5461 32.6615 15.4434 32.1921 15.4434C31.4735 15.4434 30.8648 15.5828 30.3661 15.8614C29.8821 16.1401 29.5155 16.5434 29.2661 17.0714C29.0168 17.5848 28.8921 18.2301 28.8921 19.0074C28.8921 19.7554 29.0461 20.4081 29.3541 20.9654C29.6768 21.5228 30.1241 21.9554 30.6961 22.2634C31.2828 22.5568 31.9648 22.7034 32.7421 22.7034C33.2848 22.7034 33.7835 22.6154 34.2381 22.4394C34.6928 22.2634 35.1841 21.9481 35.7121 21.4934L37.0541 23.3634C36.6581 23.7301 36.2035 24.0454 35.6901 24.3094C35.1915 24.5588 34.6635 24.7568 34.1061 24.9034C33.5488 25.0501 32.9988 25.1234 32.4561 25.1234Z" fill="#004411"></path><path d="M39.1128 24.9034V13.3094H41.7528L41.7968 15.6854L41.2908 15.9494C41.4374 15.4214 41.7234 14.9448 42.1488 14.5194C42.5741 14.0794 43.0801 13.7274 43.6668 13.4634C44.2534 13.1994 44.8548 13.0674 45.4708 13.0674C46.3508 13.0674 47.0841 13.2434 47.6708 13.5954C48.2721 13.9474 48.7194 14.4754 49.0128 15.1794C49.3208 15.8834 49.4748 16.7634 49.4748 17.8194V24.9034H46.7688V18.0174C46.7688 17.4308 46.6881 16.9468 46.5268 16.5654C46.3654 16.1694 46.1161 15.8834 45.7788 15.7074C45.4414 15.5168 45.0308 15.4288 44.5468 15.4434C44.1508 15.4434 43.7841 15.5094 43.4468 15.6414C43.1241 15.7588 42.8381 15.9348 42.5888 16.1694C42.3541 16.3894 42.1634 16.6461 42.0168 16.9394C41.8848 17.2328 41.8188 17.5554 41.8188 17.9074V24.9034H40.4768C40.2128 24.9034 39.9634 24.9034 39.7288 24.9034C39.5088 24.9034 39.3034 24.9034 39.1128 24.9034Z" fill="#004411"></path><path d="M56.559 24.9694C55.5764 24.9694 54.6744 24.7714 53.853 24.3754C53.0463 23.9648 52.401 23.4221 51.917 22.7474C51.433 22.0581 51.191 21.2954 51.191 20.4594C51.191 19.9608 51.257 19.4988 51.389 19.0734C51.5357 18.6481 51.741 18.2668 52.005 17.9294C52.2837 17.5921 52.6137 17.2914 52.995 17.0274C53.391 16.7488 53.8383 16.5068 54.337 16.3014L54.161 16.9174C53.7797 16.7561 53.4277 16.5654 53.105 16.3454C52.797 16.1254 52.5257 15.8761 52.291 15.5974C52.071 15.3041 51.9023 14.9961 51.785 14.6734C51.6677 14.3361 51.609 13.9841 51.609 13.6174C51.609 12.8254 51.829 12.1141 52.269 11.4834C52.7237 10.8528 53.325 10.3541 54.073 9.98743C54.821 9.6061 55.6497 9.41543 56.559 9.41543C57.483 9.41543 58.319 9.6061 59.067 9.98743C59.815 10.3541 60.409 10.8528 60.849 11.4834C61.3037 12.1141 61.531 12.8254 61.531 13.6174C61.531 13.9841 61.4724 14.3361 61.355 14.6734C61.2377 14.9961 61.069 15.2968 60.849 15.5754C60.6437 15.8394 60.3797 16.0888 60.057 16.3234C59.7344 16.5434 59.3604 16.7414 58.935 16.9174L58.825 16.3894C59.2943 16.5508 59.7197 16.7634 60.101 17.0274C60.4823 17.2914 60.8123 17.5994 61.091 17.9514C61.3697 18.3034 61.5823 18.6921 61.729 19.1174C61.8904 19.5428 61.971 19.9901 61.971 20.4594C61.971 21.3101 61.729 22.0801 61.245 22.7694C60.761 23.4441 60.1083 23.9794 59.287 24.3754C58.4803 24.7714 57.571 24.9694 56.559 24.9694ZM56.559 22.5054C57.0577 22.5054 57.505 22.4101 57.901 22.2194C58.297 22.0288 58.605 21.7721 58.825 21.4494C59.0597 21.1268 59.177 20.7528 59.177 20.3274C59.177 19.8728 59.0597 19.4768 58.825 19.1394C58.605 18.7874 58.297 18.5161 57.901 18.3254C57.505 18.1201 57.0577 18.0174 56.559 18.0174C56.075 18.0174 55.635 18.1201 55.239 18.3254C54.8577 18.5161 54.5497 18.7874 54.315 19.1394C54.0803 19.4768 53.963 19.8728 53.963 20.3274C53.963 20.7381 54.0803 21.1048 54.315 21.4274C54.5497 21.7501 54.8577 22.0141 55.239 22.2194C55.635 22.4101 56.075 22.5054 56.559 22.5054ZM56.559 15.5974C56.999 15.5974 57.3877 15.5168 57.725 15.3554C58.077 15.1941 58.3483 14.9741 58.539 14.6954C58.7297 14.4168 58.825 14.0941 58.825 13.7274C58.825 13.3461 58.7297 13.0161 58.539 12.7374C58.3483 12.4441 58.077 12.2168 57.725 12.0554C57.3877 11.8794 56.999 11.7914 56.559 11.7914C56.1337 11.7914 55.745 11.8794 55.393 12.0554C55.0557 12.2168 54.7917 12.4441 54.601 12.7374C54.4104 13.0161 54.315 13.3461 54.315 13.7274C54.315 14.0941 54.4104 14.4168 54.601 14.6954C54.7917 14.9741 55.0557 15.1941 55.393 15.3554C55.745 15.5168 56.1337 15.5974 56.559 15.5974Z" fill="#004411"></path><path d="M63.8316 24.9034V9.41543H66.5596V24.9034H63.8316Z" fill="#004411"></path><path d="M73.1025 25.1234C72.1492 25.1234 71.2838 24.8594 70.5065 24.3314C69.7291 23.8034 69.1058 23.0848 68.6365 22.1754C68.1672 21.2661 67.9325 20.2321 67.9325 19.0734C67.9325 17.9148 68.1672 16.8808 68.6365 15.9714C69.1058 15.0621 69.7438 14.3508 70.5505 13.8374C71.3572 13.3241 72.2665 13.0674 73.2785 13.0674C73.8652 13.0674 74.4005 13.1554 74.8845 13.3314C75.3685 13.4928 75.7938 13.7274 76.1605 14.0354C76.5271 14.3434 76.8278 14.6954 77.0625 15.0914C77.3118 15.4874 77.4805 15.9128 77.5685 16.3674L76.9745 16.2134V13.3094H79.7025V24.9034H76.9525V22.1314L77.5905 22.0214C77.4878 22.4174 77.2971 22.8061 77.0185 23.1874C76.7545 23.5541 76.4172 23.8841 76.0065 24.1774C75.6105 24.4561 75.1632 24.6834 74.6645 24.8594C74.1805 25.0354 73.6598 25.1234 73.1025 25.1234ZM73.8505 22.7254C74.4812 22.7254 75.0385 22.5714 75.5225 22.2634C76.0065 21.9554 76.3805 21.5301 76.6445 20.9874C76.9232 20.4301 77.0625 19.7921 77.0625 19.0734C77.0625 18.3694 76.9232 17.7461 76.6445 17.2034C76.3805 16.6608 76.0065 16.2354 75.5225 15.9274C75.0385 15.6194 74.4812 15.4654 73.8505 15.4654C73.2198 15.4654 72.6625 15.6194 72.1785 15.9274C71.7092 16.2354 71.3425 16.6608 71.0785 17.2034C70.8145 17.7461 70.6825 18.3694 70.6825 19.0734C70.6825 19.7921 70.8145 20.4301 71.0785 20.9874C71.3425 21.5301 71.7092 21.9554 72.1785 22.2634C72.6625 22.5714 73.2198 22.7254 73.8505 22.7254Z" fill="#004411"></path><path d="M88.4417 25.1234C87.9284 25.1234 87.4224 25.0501 86.9237 24.9034C86.4397 24.7421 85.9997 24.5294 85.6037 24.2654C85.2077 24.0014 84.8777 23.7081 84.6137 23.3854C84.3497 23.0481 84.1737 22.7108 84.0857 22.3734L84.7237 22.0874L84.6577 24.8594H82.0397V9.39746H84.7457V15.9934L84.2617 15.7734C84.3351 15.4214 84.4964 15.0914 84.7457 14.7834C85.0097 14.4608 85.3324 14.1748 85.7137 13.9254C86.0951 13.6614 86.5131 13.4561 86.9677 13.3094C87.4224 13.1481 87.8844 13.0674 88.3537 13.0674C89.3951 13.0674 90.3117 13.3241 91.1037 13.8374C91.9104 14.3508 92.5411 15.0621 92.9957 15.9714C93.4651 16.8808 93.6997 17.9148 93.6997 19.0734C93.6997 20.2468 93.4724 21.2881 93.0177 22.1974C92.5631 23.1068 91.9324 23.8254 91.1257 24.3534C90.3337 24.8668 89.4391 25.1234 88.4417 25.1234ZM87.8697 22.7474C88.4857 22.7474 89.0357 22.5934 89.5197 22.2854C90.0037 21.9628 90.3851 21.5301 90.6637 20.9874C90.9424 20.4301 91.0817 19.7921 91.0817 19.0734C91.0817 18.3694 90.9424 17.7461 90.6637 17.2034C90.3997 16.6608 90.0257 16.2354 89.5417 15.9274C89.0577 15.6194 88.5004 15.4654 87.8697 15.4654C87.2391 15.4654 86.6817 15.6194 86.1977 15.9274C85.7137 16.2354 85.3324 16.6608 85.0537 17.2034C84.7751 17.7461 84.6357 18.3694 84.6357 19.0734C84.6357 19.7921 84.7751 20.4301 85.0537 20.9874C85.3324 21.5301 85.7137 21.9628 86.1977 22.2854C86.6817 22.5934 87.2391 22.7474 87.8697 22.7474Z" fill="#004411"></path><path d="M99.184 25.1234C98.1573 25.1234 97.2333 24.9548 96.412 24.6174C95.6053 24.2654 94.9453 23.7668 94.432 23.1214L96.192 21.6034C96.632 22.1021 97.1233 22.4614 97.666 22.6814C98.2087 22.9014 98.7807 23.0114 99.382 23.0114C99.6313 23.0114 99.8513 22.9821 100.042 22.9234C100.247 22.8648 100.423 22.7768 100.57 22.6594C100.717 22.5421 100.827 22.4101 100.9 22.2634C100.988 22.1021 101.032 21.9261 101.032 21.7354C101.032 21.3834 100.9 21.1048 100.636 20.8994C100.489 20.7968 100.255 20.6868 99.932 20.5694C99.624 20.4521 99.2207 20.3348 98.722 20.2174C97.93 20.0121 97.27 19.7774 96.742 19.5134C96.214 19.2348 95.8033 18.9268 95.51 18.5894C95.2607 18.3108 95.07 17.9954 94.938 17.6434C94.8207 17.2914 94.762 16.9101 94.762 16.4994C94.762 15.9861 94.872 15.5241 95.092 15.1134C95.3267 14.6881 95.642 14.3214 96.038 14.0134C96.434 13.7054 96.896 13.4708 97.424 13.3094C97.952 13.1481 98.502 13.0674 99.074 13.0674C99.6607 13.0674 100.225 13.1408 100.768 13.2874C101.325 13.4341 101.839 13.6468 102.308 13.9254C102.792 14.1894 103.203 14.5121 103.54 14.8934L102.044 16.5434C101.765 16.2794 101.457 16.0448 101.12 15.8394C100.797 15.6341 100.467 15.4728 100.13 15.3554C99.7927 15.2234 99.4773 15.1574 99.184 15.1574C98.9053 15.1574 98.656 15.1868 98.436 15.2454C98.216 15.2894 98.0327 15.3628 97.886 15.4654C97.7393 15.5681 97.622 15.7001 97.534 15.8614C97.4607 16.0081 97.424 16.1841 97.424 16.3894C97.4387 16.5654 97.4827 16.7341 97.556 16.8954C97.644 17.0421 97.7613 17.1668 97.908 17.2694C98.0693 17.3721 98.3113 17.4894 98.634 17.6214C98.9567 17.7534 99.3747 17.8781 99.888 17.9954C100.607 18.1861 101.208 18.3988 101.692 18.6334C102.176 18.8681 102.557 19.1394 102.836 19.4474C103.115 19.7114 103.313 20.0194 103.43 20.3714C103.547 20.7234 103.606 21.1121 103.606 21.5374C103.606 22.2268 103.408 22.8428 103.012 23.3854C102.631 23.9281 102.103 24.3534 101.428 24.6614C100.768 24.9694 100.02 25.1234 99.184 25.1234Z" fill="#004411"></path><path d="M4.91789 8.35767H7.47215L6.89345 14.1846L7.47215 20.0115H4.91789L5.5365 14.1846L4.91789 8.35767Z" fill="#FFAC25"></path><path d="M12.0233 12.9075V15.4617L6.17646 15.0227L0.369507 15.4617L0.369507 12.9075L6.17646 13.6857L12.0233 12.9075Z" fill="#FFAC25"></path><path d="M9.38859 9.23572L11.1947 11.0419L6.6776 14.6996L2.95423 19.2823L1.1481 17.4762L5.79417 13.5707L9.38859 9.23572Z" fill="#FFAC25"></path><path d="M11.2245 17.4572L9.4184 19.2633L5.7206 14.7487L1.17791 11.0228L2.98404 9.21666L6.60404 13.6444L11.2245 17.4572Z" fill="#FFAC25"></path></svg>